<svg width="512" height="512" viewBox="0 0 512 512" fill="none" xmlns="http://www.w3.org/2000/svg">
<rect width="512" height="512" rx="80" fill="url(#paint0_linear_108_2)"/>
<g filter="url(#filter0_i_108_2)">
<circle cx="256" cy="256" r="221.333" fill="#1F2937"/>
</g>
<g filter="url(#filter1_d_108_2)">
<path d="M241.963 121.192C236.817 116.047 228.496 116.047 223.405 121.192L170.853 173.734C165.707 178.879 165.707 187.198 170.853 192.288L219.792 241.219L211.307 249.702C197.786 243.463 182.786 239.96 166.966 239.96C149.613 239.96 133.299 244.174 118.902 251.563C113.975 254.135 113.264 260.703 117.205 264.589L176.108 323.535L167.13 332.511C165.707 332.128 164.174 331.909 162.586 331.909C152.897 331.909 145.069 339.736 145.069 349.423C145.069 359.111 152.897 366.937 162.586 366.937C172.276 366.937 180.104 359.111 180.104 349.423C180.104 347.836 179.885 346.358 179.502 344.88L188.48 335.904L247.382 394.796C251.324 398.736 257.893 398.025 260.411 393.099C267.856 378.704 272.071 362.394 272.071 345.044C272.071 329.227 268.568 314.231 262.327 300.767L270.812 292.283L319.697 341.213C324.843 346.358 333.164 346.358 338.255 341.213L390.807 288.671C395.953 283.526 395.953 275.207 390.807 270.117L341.868 221.187L371.976 191.084C378.819 184.243 378.819 173.132 371.976 166.291L345.7 140.02C338.857 133.178 327.744 133.178 320.901 140.02L290.793 170.122L241.963 121.192ZM329.003 313.3L289.37 273.674L323.365 239.686L362.998 279.366L329.003 313.355V313.3ZM238.295 222.664L198.662 183.039L232.657 149.05L272.29 188.676L238.295 222.664Z" fill="#D97706"/>
</g>
<defs>
<filter id="filter0_i_108_2" x="34.6666" y="34.6666" width="442.667" height="442.667" filterUnits="userSpaceOnUse" color-interpolation-filters="sRGB">
<feFlood flood-opacity="0" result="BackgroundImageFix"/>
<feBlend mode="normal" in="SourceGraphic" in2="BackgroundImageFix" result="shape"/>
<feColorMatrix in="SourceAlpha" type="matrix" values="0 0 0 0 0 0 0 0 0 0 0 0 0 0 0 0 0 0 127 0" result="hardAlpha"/>
<feMorphology radius="4" operator="erode" in="SourceAlpha" result="effect1_innerShadow_108_2"/>
<feOffset/>
<feGaussianBlur stdDeviation="4"/>
<feComposite in2="hardAlpha" operator="arithmetic" k2="-1" k3="1"/>
<feColorMatrix type="matrix" values="0 0 0 0 0 0 0 0 0 0 0 0 0 0 0 0 0 0 0.25 0"/>
<feBlend mode="normal" in2="shape" result="effect1_innerShadow_108_2"/>
</filter>
<filter id="filter1_d_108_2" x="110.667" y="117.333" width="288" height="288" filterUnits="userSpaceOnUse" color-interpolation-filters="sRGB">
<feFlood flood-opacity="0" result="BackgroundImageFix"/>
<feColorMatrix in="SourceAlpha" type="matrix" values="0 0 0 0 0 0 0 0 0 0 0 0 0 0 0 0 0 0 127 0" result="hardAlpha"/>
<feOffset dy="4"/>
<feGaussianBlur stdDeviation="2"/>
<feComposite in2="hardAlpha" operator="out"/>
<feColorMatrix type="matrix" values="0 0 0 0 0 0 0 0 0 0 0 0 0 0 0 0 0 0 0.25 0"/>
<feBlend mode="normal" in2="BackgroundImageFix" result="effect1_dropShadow_108_2"/>
<feBlend mode="normal" in="SourceGraphic" in2="effect1_dropShadow_108_2" result="shape"/>
</filter>
<linearGradient id="paint0_linear_108_2" x1="0" y1="0" x2="512" y2="512" gradientUnits="userSpaceOnUse">
<stop stop-color="#334155"/>
<stop offset="1" stop-color="#20395C"/>
</linearGradient>
</defs>
</svg>
